<svg xmlns="http://www.w3.org/2000/svg" viewBox="0 0 256 256" width="96" height="96">
    <g transform="scale(5.33333)">
        <path d="M31.003,7.001l-0.001,-5.5c0,-0.828 0.672,-1.5 1.5,-1.5c0.828,0 1.5,0.672 1.5,1.5v5.5z" fill="#11de50"/>
        <path d="M14.964,47.999h18.073c0.533,0 0.965,-0.432 0.965,-0.965v-42.07c0,-0.533 -0.432,-0.965 -0.965,-0.965h-18.073c-0.533,0 -0.965,0.432 -0.965,0.965v42.07c0,0.533 0.432,0.965 0.965,0.965z" fill="#11de50"/>
        <path d="M17.739,29.001h12.524c0.962,0 1.741,-0.78 1.741,-1.741v-16.517c0,-0.962 -0.78,-1.741 -1.741,-1.741h-12.524c-0.962,0 -1.741,0.78 -1.741,1.741v16.517c-0.001,0.962 0.779,1.741 1.741,1.741z" fill="#ffffff"/>
        <path d="M12.001,22.001c3.643,-0.7 5.865,-2.448 7,-5c1.135,2.552 3.357,4.3 7,5z" fill="#9b2310"/>
        <path d="M12.001,22.001c4.273,0.867 6.476,1 11,1c5.076,0 11.712,-1.939 14,-6l-9,-4c-3.962,5.138 -6.138,9 -16,9z" fill="#e60023"/>
    </g>
</svg>
